# xmcd
#
# Track frame offsets:
#	150
#	16370
#	30907
#	44925
#	56117
#	73057
#	91310
#	109532
#	122065
#	132962
#	147112
#	160062
#	176290
#	189005
#	209057
#	228342
#
# Disc length: 3266 seconds
#
# Revision: 0
# Processed by: cddbd v1.5.1PL0 Copyright (c) Steve Scherf et al.
# Submitted via: EasyCDDAExtractor 5.0.4.1
#
DISCID=da0cc010
DTITLE=Twice As Blue Orchestra - As Blue As You
DYEAR=1995
DGENRE=Blues
TTITLE0=Night Train
TTITLE1=Cool Woman Shuffle
TTITLE2=Good Wolf
TTITLE3=As Blue As You
TTITLE4=Country Blues
TTITLE5=Rough Luck Blues
TTITLE6=Good Heaven
TTITLE7=Bad Vibes And Aspirin
TTITLE8=Take Care Of My Baby
TTITLE9=I Need No Place To Hide
TTITLE10=Don't Stop Me Talking
TTITLE11=Who's That Man
TTITLE12=I Put You Down
TTITLE13=I Can See The Horizon
TTITLE14=Season Of Love
TTITLE15=Mellow Groove
EXTD=
EXTT0=
EXTT1=
EXTT2=
EXTT3=
EXTT4=
EXTT5=
EXTT6=
EXTT7=
EXTT8=
EXTT9=
EXTT10=
EXTT11=
EXTT12=
EXTT13=
EXTT14=
EXTT15=
PLAYORDER=
